<svg xmlns="http://www.w3.org/2000/svg" version="1.0" width="50.60379184240753" height="50.41516736963036" preserveAspectRatio="xMidYMid meet" style=""><rect id="backgroundrect" width="100%" height="100%" x="0" y="0" fill="none" stroke="none" class="" style=""/>


<g class="currentLayer" style=""><title>Layer 1</title>


<path d="M30.89022082261611,1.9489559950452557 c-0.2913902390391457,0.07453826381048446 -0.8195350472975965,0.32796836076613134 -1.1837728460965282,0.5664908049596813 c-0.85595882717749,0.536675499435488 -1.8940365537544457,0.9839050822983939 -2.9685380602112947,1.2373351792540408 c-0.4735091384386113,0.11926122209677517 -1.1291371762766886,0.46213723562500325 -1.6026463147153005,0.834828554677425 c-0.7284755975978641,0.5664908049596813 -0.8013231573576496,0.6708443742943593 -0.6738399277780246,1.1180739571572653 c0.07284755975978648,0.2683377497177438 0.1639070094595197,1.0137203878225873 0.21854267927935905,1.6398418038306564 c0.07284755975978648,1.0733509988709748 0.12748322957962635,1.1777045682056528 0.6192042579581845,1.4758576234475904 c0.49172102837855813,0.28324540247984087 0.5281448082584512,0.37269131905242203 0.5281448082584512,1.3118734430645251 c0,1.2671504847782342 0.2003307893394127,1.4311346651612997 1.6572819845351399,1.4162270123992031 l1.0745015064568493,-0.014907652762096895 l-0.5463566981983978,0.49195254114919695 c-1.3112560756761549,1.2373351792540408 -2.2218505726734845,3.0709764689919554 -2.640724041292256,5.381662647116971 c-0.2913902390391457,1.5802111927822688 -0.3460259088589857,4.084696856814543 -0.10927133963967961,5.038786633588744 c0.14569511951957295,0.5217678466733905 0.1639070094595197,0.4323219301008094 0.18211889939946624,-0.6112137632459717 c0.054635669819839805,-3.637467273951637 1.675493874475087,-7.125858020282306 4.370853585587182,-9.496174809455706 c1.2384085159163685,-1.0882586516330717 1.4933749750756204,-1.1329816099193624 0.8923826070573834,-0.13416887485887213 c-0.5281448082584512,0.8795515129637159 -1.0562896165169022,2.787731066512115 -1.0380777265769559,3.7269131905242183 c0,0.536675499435488 0.018211889939946612,0.5217678466733905 0.25496645915925265,-0.22361479143145344 c0.14569511951957295,-0.4323219301008094 0.4735091384386113,-1.1031663043951687 0.7102637076579171,-1.5056729289717836 c0.5099329183185046,-0.805013249153231 1.8576127738745525,-2.2659632198387247 2.1125792330338045,-2.2659632198387247 c0.09105944969973308,0 -0.1639070094595197,0.5515831521975846 -0.5463566981983978,1.2373351792540408 c-1.4569511951957272,2.5492086223185657 -2.1307911229737515,5.57546213302423 -1.6572819845351399,7.409103422762146 c0.49172102837855813,1.8783642480242058 2.1672149028536447,4.010158593004059 4.935422173725527,6.291029465604879 c0.8741707171174365,0.7304749853427469 1.4933749750756204,1.3118734430645251 1.384103635435941,1.3118734430645251 c-0.10927133963967961,0 -0.6192042579581845,-0.19379948590725976 -1.1291371762766886,-0.4323219301008094 c-1.0745015064568493,-0.5068601939112936 -2.6225121513523093,-1.8485489425000123 -3.2781401891903865,-2.8324540247984062 l-0.45529724849866493,-0.6857520270564563 l0.10927133963967961,0.7453826381048438 c0.10927133963967961,0.819920901915328 0.9105944969973299,2.325593830887112 1.6572819845351399,3.1306070800403427 c0.6920518177179708,0.7453826381048438 0.21854267927935905,0.6410290687701656 -0.85595882717749,-0.17889183314516247 c-1.1291371762766886,-0.8646438602016187 -1.7119176543549797,-1.6547494565927532 -2.2764862424933243,-3.0709764689919554 l-0.41887346861877184,-1.0733509988709748 l-0.018211889939946612,1.1180739571572653 c-0.018211889939946612,2.4150397474596934 1.110925286336742,4.487203481391159 4.498336815166809,8.243931977439571 c1.0745015064568493,1.1926122209677499 1.1655609561565818,1.95290251183469 0.5099329183185046,3.6076519684274437 c-0.09105944969973308,0.19379948590725976 0.07284755975978648,0.11926122209677517 0.45529724849866493,-0.22361479143145344 l0.582780478078291,-0.5217678466733905 l-0.10927133963967961,0.7006596798185531 c-0.054635669819839805,0.4025066245766156 -0.1639070094595197,0.8944591657258122 -0.21854267927935905,1.1031663043951687 c-0.10927133963967961,0.37269131905242203 -0.054635669819839805,0.357783666290325 1.2384085159163685,-0.37269131905242203 c1.7301295442949263,-0.9689974295362966 3.25992829925044,-1.5056729289717836 4.461913035286915,-1.6100264983064623 l0.9470182768772226,-0.08944591657258129 l-0.6738399277780246,-0.4025066245766156 c-0.6556280378380781,-0.3875989718145188 -1.8211889939946597,-1.3416887485887181 -1.6572819845351399,-1.3416887485887181 c0.036423779879893196,0 0.5099329183185046,0.13416887485887213 1.0380777265769559,0.29815305524193797 c1.2019847360364753,0.37269131905242203 2.8046310507517758,0.5217678466733905 3.970192006908357,0.37269131905242203 l0.8923826070573834,-0.11926122209677517 l-0.7831112674177035,-0.19379948590725976 c-1.0927133963967954,-0.2683377497177438 -1.9122484436943923,-0.7155673325806499 -2.7317834909919885,-1.4758576234475904 c-2.2218505726734845,-2.072163733931465 -3.332775859010226,-6.052507021411329 -2.0033078933941253,-7.2153039368548875 c0.6738399277780246,-0.5963061104838754 2.094367343093858,-0.29815305524193797 2.9503261702713477,0.626121416008069 c0.6556280378380781,0.7006596798185531 0.6192042579581845,0.9093668184879091 -0.10927133963967961,0.7901055963911346 c-2.0579435632139655,-0.29815305524193797 -2.185426792793591,-0.29815305524193797 -2.1125792330338045,0 c0.036423779879893196,0.1639841803830658 0.4370853585587182,0.44722958286290637 0.9105944969973299,0.6410290687701656 c1.0198658366370092,0.41741427733871256 1.6937057644150335,1.3565964013508154 1.4933749750756204,2.012533122883078 c-0.07284755975978648,0.25343009695564717 0,0.5217678466733905 0.18211889939946624,0.7602902908669404 c0.5281448082584512,0.655936721532262 0.400661578678825,0.8646438602016187 -0.4735091384386113,0.7751979436290374 l-0.7831112674177035,-0.07453826381048446 l0.7831112674177035,0.5813984577217782 c0.8377469372375435,0.5963061104838754 1.5297987549555137,0.7901055963911346 2.6043002614123627,0.7006596798185531 l0.6192042579581845,-0.04472295828629062 l0.054635669819839805,-0.9391821240121025 c0.054635669819839805,-0.849736207439522 0,-1.0286280405846842 -0.5463566981983978,-1.699472414879044 c-0.5281448082584512,-0.6857520270564563 -0.6009923680182375,-0.9093668184879091 -0.6920518177179708,-2.2063326087903374 c-0.09105944969973308,-1.1777045682056528 -0.18211889939946624,-1.5205805817338809 -0.5281448082584512,-1.923087206310497 c-0.5645685881383444,-0.6410290687701656 -2.1672149028536447,-1.2522428320161372 -3.5331066483496385,-1.3267810958266217 c-1.147349066216635,-0.07453826381048446 -1.2201966259764216,-0.19379948590725976 -0.41887346861877184,-0.6857520270564563 c0.38244968873887847,-0.23852244419355006 0.7648993774777572,-0.31306070800403435 1.6208582046552467,-0.31306070800403435 c2.6043002614123627,0.014907652762096895 4.8807865039056875,1.8783642480242058 5.718533441143229,4.651187661774224 c0.41887346861877184,1.401319359637106 0.400661578678825,4.62137235625003 -0.018211889939946612,7.3792881172379525 c-0.30960212897909245,2.042348428407272 -0.30960212897909245,2.2808708726008216 -0.036423779879893196,3.249868302137118 c0.6556280378380781,2.4150397474596934 1.4023155253758879,3.38403717699599 4.188734686187716,5.411477952641165 l1.2748322957962617,0.9242744712500062 l-0.5281448082584512,-0.7453826381048438 c-0.2913902390391457,-0.41741427733871256 -0.5645685881383444,-0.819920901915328 -0.6374161478981304,-0.8944591657258122 c-0.14569511951957295,-0.17889183314516247 -0.36423779879893253,-0.6708443742943593 -0.30960212897909245,-0.6708443742943593 c0.018211889939946612,0 0.400661578678825,0.4025066245766156 0.85595882717749,0.9093668184879091 c0.9470182768772226,1.0584433461088778 3.0413856199710807,2.4895780112701775 4.953634063665474,3.354221871471796 c1.1837728460965282,0.536675499435488 3.9519801169684103,1.5503958872580748 4.2433703560075555,1.5503958872580748 c0.054635669819839805,0 -0.18211889939946624,-0.25343009695564717 -0.5463566981983978,-0.5664908049596813 c-1.0380777265769559,-0.849736207439522 -1.1655609561565818,-1.2075198737298467 -0.18211889939946624,-0.5217678466733905 c2.2400624626134307,1.6398418038306564 4.953634063665474,1.5653035400201714 6.192042579581842,-0.14907652762096893 c0.6009923680182375,-0.849736207439522 0.85595882717749,-2.310686178125015 0.6192042579581845,-3.5331137046169587 c-0.10927133963967961,-0.536675499435488 -0.23675456921930613,-1.4162270123992031 -0.2913902390391457,-1.95290251183469 l-0.10927133963967961,-0.9988127350604904 l-0.7284755975978641,-0.08944591657258129 c-0.400661578678825,-0.0596306110483876 -0.7648993774777572,-0.07453826381048446 -0.8013231573576496,-0.02981530552419377 c-0.036423779879893196,0.02981530552419377 0.054635669819839805,0.41741427733871256 0.2003307893394127,0.849736207439522 c0.5281448082584512,1.460949970685494 0.2731783490991993,2.2212402615524343 -0.7466874875378102,2.2212402615524343 c-0.9470182768772226,0 -1.8394008839346054,-0.655936721532262 -2.640724041292256,-1.9379948590725935 c-0.36423779879893253,-0.5963061104838754 -0.41887346861877184,-0.357783666290325 -0.12748322957962635,0.49195254114919695 c0.30960212897909245,0.9093668184879091 0.07284755975978648,0.805013249153231 -0.5645685881383444,-0.25343009695564717 c-1.347679855556048,-2.2212402615524343 -0.45529724849866493,-4.561741745201643 1.7119176543549797,-4.561741745201643 c0.400661578678825,0 1.3294679656161015,0.10435356933467824 2.021519783334072,0.22361479143145344 c1.5662225348354069,0.2683377497177438 2.312910022373217,0.11926122209677517 2.8592667205716147,-0.5813984577217782 l0.36423779879893253,-0.46213723562500325 l-0.10927133963967961,0.5068601939112936 c-0.09105944969973308,0.4323219301008094 -0.07284755975978648,0.47704488838709996 0.1639070094595197,0.31306070800403435 c0.400661578678825,-0.2683377497177438 0.6738399277780246,-1.2969657903024283 0.5463566981983978,-1.9678101645967871 c-0.10927133963967961,-0.46213723562500325 -0.18211889939946624,-0.5664908049596813 -0.41887346861877184,-0.49195254114919695 c-0.8377469372375435,0.28324540247984087 -1.639070094595193,0.37269131905242203 -4.334429805707289,0.5068601939112936 c-3.0595975099110273,0.13416887485887213 -3.6059542081094254,0.25343009695564717 -4.389065475527128,0.9391821240121025 c-0.6738399277780246,0.5813984577217782 -1.0016539466970624,1.5802111927822688 -1.1291371762766886,3.3989448297580878 l-0.10927133963967961,1.7143800676411405 l-0.400661578678825,-0.7751979436290374 c-0.6192042579581845,-1.1478892626814592 -0.8741707171174365,-2.802638719274212 -0.6374161478981304,-4.114512162338737 c0.10927133963967961,-0.6112137632459717 0.25496645915925265,-1.2075198737298467 0.3278140189190389,-1.3416887485887181 c0.18211889939946624,-0.41741427733871256 -0.23675456921930613,-0.28324540247984087 -1.0198658366370092,0.28324540247984087 c-0.41887346861877184,0.31306070800403435 -1.0380777265769559,1.0435356933467812 -1.475163085135674,1.7591030259274305 c-0.7284755975978641,1.1777045682056528 -0.7466874875378102,1.1926122209677499 -0.6374161478981304,0.536675499435488 c0.07284755975978648,-0.37269131905242203 0.36423779879893253,-1.2671504847782342 0.6738399277780246,-1.9827178173588842 c0.2913902390391457,-0.7304749853427469 0.5281448082584512,-1.3416887485887181 0.5281448082584512,-1.3864117068750095 c0,-0.19379948590725976 -1.6208582046552467,0.655936721532262 -2.4221813620128967,1.2522428320161372 c-0.7831112674177035,0.5963061104838754 -0.8923826070573834,0.6410290687701656 -0.7648993774777572,0.32796836076613134 c0.2731783490991993,-0.7453826381048438 0.6556280378380781,-1.4162270123992031 1.0745015064568493,-1.8634565952621092 l0.4370853585587182,-0.46213723562500325 l-0.9652301668171697,-0.47704488838709996 c-3.5331066483496385,-1.7441953731653346 -5.463566981983977,-6.589182520846818 -3.9337682270284637,-9.898681434032323 c0.41887346861877184,-0.8944591657258122 1.639070094595193,-2.1467019977419497 2.45860514189279,-2.4895780112701775 c0.3278140189190389,-0.14907652762096893 0.4735091384386113,-0.3428760135282283 0.4735091384386113,-0.5963061104838754 c0,-1.0733509988709748 1.2748322957962617,-3.771636148810509 2.312910022373217,-4.904617758729871 l0.4370853585587182,-0.47704488838709996 l-0.6738399277780246,-0.23852244419355006 c-1.4569511951957272,-0.49195254114919695 -3.223504519370547,-0.7006596798185531 -6.3013139192215215,-0.7155673325806499 c-1.6572819845351399,-0.014907652762096895 -3.0049618400911884,-0.02981530552419377 -2.9685380602112947,-0.0596306110483876 c0.1639070094595197,-0.14907652762096893 2.9321142803314015,-0.6410290687701656 4.443701145346968,-0.7901055963911346 c1.5662225348354069,-0.1639841803830658 6.192042579581842,-0.10435356933467824 8.031443463516448,0.08944591657258129 c0.3460259088589857,0.04472295828629062 -0.07284755975978648,-0.13416887485887213 -0.9288063869372761,-0.37269131905242203 c-4.188734686187716,-1.162796915443556 -10.326141595949718,-1.162796915443556 -15.917191807513317,0 c-0.6920518177179708,0.14907652762096893 -1.293044185736208,0.25343009695564717 -1.3294679656161015,0.22361479143145344 c-0.12748322957962635,-0.08944591657258129 3.4056234187700123,-1.1478892626814592 4.935422173725527,-1.4758576234475904 c4.7897270542059545,-1.0137203878225873 9.980115687090732,-0.8795515129637159 14.879114080936366,0.3875989718145188 c2.312910022373217,0.5963061104838754 5.518202651803818,1.9081795535483996 6.920518177179705,2.8324540247984062 c1.3112560756761549,0.849736207439522 1.2566204058563148,0.8646438602016187 1.8394008839346054,-0.6708443742943593 c0.5645685881383444,-1.5056729289717836 0.4370853585587182,-3.264775954899215 -0.3278140189190389,-4.517018786915353 c-0.7648993774777572,-1.2671504847782342 -1.4023155253758879,-1.8932719007863028 -2.8592667205716147,-2.8473616775605026 c-1.6572819845351399,-1.0584433461088778 -4.152310906307823,-2.042348428407272 -6.374161478981307,-2.5044856640322744 c-2.0761554531539117,-0.4323219301008094 -2.8046310507517758,-0.47704488838709996 -1.475163085135674,-0.08944591657258129 c3.824496887388784,1.1180739571572653 6.793034947600078,3.175330038326634 8.0132315735765,5.560554480262133 c0.38244968873887847,0.7602902908669404 0.23675456921930613,0.7155673325806499 -0.3460259088589857,-0.08944591657258129 c-1.0745015064568493,-1.5056729289717836 -3.824496887388784,-2.996438205181472 -6.610916048200613,-3.5778366629032488 c-3.9337682270284637,-0.834828554677425 -9.288063869372762,-0.5515831521975846 -14.004943363818928,0.7304749853427469 c-1.8940365537544457,0.5068601939112936 -4.461913035286915,1.5653035400201714 -5.718533441143229,2.325593830887112 l-1.0016539466970624,0.6112137632459717 l0.9105944969973299,-0.7602902908669404 c1.7301295442949263,-1.4758576234475904 4.86257461396574,-2.8771769830846967 8.104291023276234,-3.637467273951637 c1.8940365537544457,-0.44722958286290637 4.662243824626327,-0.849736207439522 5.900652340542696,-0.849736207439522 c1.584434424775354,0 1.584434424775354,-0.25343009695564717 0,-0.37269131905242203 c-2.6043002614123627,-0.20870713866935645 -6.793034947600078,0.20870713866935645 -9.197004419673029,0.8944591657258122 c-1.1655609561565818,0.3428760135282283 -0.8013231573576496,0.10435356933467824 0.8013231573576496,-0.5217678466733905 c2.8774786105115617,-1.1180739571572653 6.8112468375400255,-1.7740106786895282 9.77978489775132,-1.5951188455443654 l1.3658917454959942,0.07453826381048446 l-1.0016539466970624,-0.22361479143145344 c-0.5463566981983978,-0.11926122209677517 -2.185426792793591,-0.25343009695564717 -3.6423779879893186,-0.29815305524193797 c-2.185426792793591,-0.0596306110483876 -2.9503261702713477,-0.014907652762096895 -4.370853585587182,0.22361479143145344 c-3.8791325572086244,0.655936721532262 -7.230120306158797,2.19142495602824 -10.271505926129878,4.725725925584709 c-1.1291371762766886,0.9391821240121025 -1.2384085159163685,0.9988127350604904 -1.1291371762766886,0.5963061104838754 c0.07284755975978648,-0.25343009695564717 0.41887346861877184,-0.819920901915328 0.7648993774777572,-1.2969657903024283 c0.7102637076579171,-0.9540897767741999 0.7648993774777572,-1.3416887485887181 0.25496645915925265,-1.7591030259274305 c-0.5463566981983978,-0.44722958286290637 -1.8394008839346054,-0.4025066245766156 -3.187080739490654,0.13416887485887213 c-1.2201966259764216,0.47704488838709996 -3.478470978529799,1.8038259842137219 -5.026481623425259,2.966622899657277 c-0.5645685881383444,0.4323219301008094 -1.0927133963967954,0.7751979436290374 -1.147349066216635,0.7751979436290374 c-0.07284755975978648,0 0.054635669819839805,-0.28324540247984087 0.2731783490991993,-0.6410290687701656 c0.5463566981983978,-0.8646438602016187 2.749995380931935,-2.608839233366953 4.079463346548036,-3.2051453438508277 l1.0927133963967954,-0.49195254114919695 l-0.7284755975978641,0.08944591657258129 c-1.3112560756761549,0.1639841803830658 -2.9685380602112947,0.6857520270564563 -4.097675236487983,1.282058137540331 c-1.110925286336742,0.5813984577217782 -1.1291371762766886,0.5813984577217782 -0.7466874875378102,0.1639841803830658 c0.7831112674177035,-0.8944591657258122 2.51324081171263,-1.95290251183469 3.9155563370885176,-2.3703167891734025 c0.400661578678825,-0.11926122209677517 1.293044185736208,-0.29815305524193797 1.9850960034541787,-0.4025066245766156 c1.1837728460965282,-0.1639841803830658 1.2201966259764216,-0.17889183314516247 0.9470182768772226,-0.47704488838709996 c-0.5099329183185046,-0.6112137632459717 -2.2582743525533773,-1.0435356933467812 -3.223504519370547,-0.805013249153231 z" id="svg_4" class="" fill="#ba7021" fill-opacity="1" transform="translate(-21.978023529052734,0) "/>





















<path d="M20.000000298023224,872.4999989941716 c-2.2000000327825546,2.600000038743019 0.30000000447034836,6.500000096857548 4.000000059604645,6.500000096857548 c3.500000052154064,0 5.800000086426735,-3.6000000536441803 4.500000067055225,-6.70000009983778 c-0.7000000104308128,-1.600000023841858 -0.9000000134110451,-1.5000000223517418 -1.3000000193715096,0.7000000104308128 c-0.6000000089406967,4.000000059604645 -2.2000000327825546,4.800000071525574 -2.2000000327825546,1.2000000178813934 c0,-2.500000037252903 -0.4000000059604645,-3.200000047683716 -1.9000000283122063,-3.200000047683716 c-1.0000000149011612,0 -2.400000035762787,0.7000000104308128 -3.1000000461935997,1.5000000223517418 zm3.0000000447034836,2.600000038743019 c0,1.1000000163912773 -0.4000000059604645,1.700000025331974 -1.0000000149011612,1.4000000208616257 c-0.5000000074505806,-0.30000000447034836 -1.0000000149011612,-1.3000000193715096 -1.0000000149011612,-2.1000000312924385 c0,-0.800000011920929 0.5000000074505806,-1.4000000208616257 1.0000000149011612,-1.4000000208616257 c0.6000000089406967,0 1.0000000149011612,0.9000000134110451 1.0000000149011612,2.1000000312924385 z" id="svg_26" class=""/>
<path d="M19.700000293552876,883.8999991640449 c-0.800000011920929,2.2000000327825546 -1.8000000268220901,3.1000000461935997 -3.400000050663948,3.1000000461935997 c-1.4000000208616257,0 -2.3000000342726707,0.6000000089406967 -2.3000000342726707,1.5000000223517418 c0,2.3000000342726707 13.800000205636024,2.2000000327825546 14.70000021904707,-0.20000000298023224 c1.0000000149011612,-2.600000038743019 -1.9000000283122063,-6.800000101327896 -5.000000074505806,-7.1000001057982445 c-2.400000035762787,-0.30000000447034836 -3.0000000447034836,0.20000000298023224 -4.000000059604645,2.7000000402331352 zm5.700000084936619,-0.30000000447034836 c2.8000000417232513,1.1000000163912773 1.8000000268220901,3.400000050663948 -1.4000000208616257,3.400000050663948 c-1.8000000268220901,0 -3.0000000447034836,-0.5000000074505806 -3.0000000447034836,-1.3000000193715096 c0,-2.500000037252903 1.5000000223517418,-3.200000047683716 4.400000065565109,-2.1000000312924385 z" id="svg_27" class=""/>
<path d="M20.60000030696392,893.5999993085861 c-0.9000000134110451,0.800000011920929 -1.600000023841858,2.2000000327825546 -1.600000023841858,2.9000000432133675 c0,2.1000000312924385 2.9000000432133675,4.500000067055225 5.500000081956387,4.500000067055225 c2.2000000327825546,0 4.500000067055225,-2.500000037252903 4.500000067055225,-4.90000007301569 c0,-1.600000023841858 -3.0000000447034836,-4.100000061094761 -5.000000074505806,-4.100000061094761 c-1.0000000149011612,0 -2.600000038743019,0.7000000104308128 -3.400000050663948,1.600000023841858 zm5.900000087916851,2.9000000432133675 c0,2.2000000327825546 -3.1000000461935997,3.300000049173832 -4.700000070035458,1.700000025331974 c-1.700000025331974,-1.700000025331974 -0.10000000149011612,-4.400000065565109 2.400000035762787,-4.000000059604645 c1.5000000223517418,0.20000000298023224 2.3000000342726707,1.0000000149011612 2.3000000342726707,2.3000000342726707 z" id="svg_28" class=""/>
<path d="M14.000000208616257,904.9999994784594 c0,0.5000000074505806 1.1000000163912773,1.0000000149011612 2.500000037252903,1.0000000149011612 c1.5000000223517418,0 2.500000037252903,0.6000000089406967 2.500000037252903,1.4000000208616257 c0,4.500000067055225 7.300000108778477,6.200000092387199 9.200000137090683,2.2000000327825546 c2.0000000298023224,-4.500000067055225 0.6000000089406967,-5.600000083446503 -7.200000107288361,-5.600000083446503 c-4.000000059604645,0 -7.000000104308128,0.4000000059604645 -7.000000104308128,1.0000000149011612 zm12.800000190734863,2.7000000402331352 c-0.20000000298023224,1.2000000178813934 -1.2000000178813934,1.8000000268220901 -2.8000000417232513,1.8000000268220901 c-1.600000023841858,0 -2.600000038743019,-0.6000000089406967 -2.8000000417232513,-1.8000000268220901 c-0.30000000447034836,-1.3000000193715096 0.30000000447034836,-1.700000025331974 2.8000000417232513,-1.700000025331974 c2.500000037252903,0 3.1000000461935997,0.4000000059604645 2.8000000417232513,1.700000025331974 z" id="svg_29" class=""/>
<path d="M22.000000327825546,915.4999996349216 c-3.6000000536441803,1.2000000178813934 -6.500000096857548,2.8000000417232513 -6.500000096857548,3.500000052154064 c0,0.7000000104308128 3.0000000447034836,2.3000000342726707 6.800000101327896,3.6000000536441803 c3.8000000566244125,1.3000000193715096 6.70000009983778,1.8000000268220901 6.70000009983778,1.2000000178813934 c0,-0.5000000074505806 -0.9000000134110451,-1.2000000178813934 -2.0000000298023224,-1.5000000223517418 c-2.400000035762787,-0.6000000089406967 -2.9000000432133675,-6.3000000938773155 -0.6000000089406967,-6.3000000938773155 c1.4000000208616257,0 3.200000047683716,-1.8000000268220901 2.500000037252903,-2.400000035762787 c-0.20000000298023224,-0.20000000298023224 -3.300000049173832,0.7000000104308128 -6.900000102818012,1.9000000283122063 zm0.800000011920929,5.000000074505806 c-0.7000000104308128,0.7000000104308128 -4.800000071525574,-0.7000000104308128 -4.800000071525574,-1.5000000223517418 c0,-1.5000000223517418 4.500000067055225,-1.600000023841858 4.800000071525574,-0.20000000298023224 c0.20000000298023224,0.800000011920929 0.20000000298023224,1.5000000223517418 0,1.700000025331974 z" id="svg_30" class=""/>
</g></svg>