<svg xmlns="http://www.w3.org/2000/svg" version="1.0" width="160" height="140" preserveAspectRatio="xMidYMid meet"><rect id="backgroundrect" width="100%" height="100%" x="0" y="0" fill="none" stroke="none"/>


<g class="currentLayer" style=""><title>Layer 1</title>


<path d="M40.14189868755984,0.9811194535567127 c-0.7074331785907501,0.2210728683096096 -1.9896558147864831,0.9727206205622809 -2.87394728802492,1.6801537991530306 c-2.0780849621103274,1.5917246518291879 -4.598315660839873,2.918161861686843 -7.206975506893263,3.669809613939515 c-1.1495789152099682,0.35371658929537525 -2.741303567039155,1.3706517835195782 -3.890882482249124,2.4760161250676243 c-1.768582946476875,1.6801537991530306 -1.945441241124561,1.9896558147864831 -1.6359392254911098,3.316093024644139 c0.17685829464768765,0.7958623259145938 0.39793116295729747,3.0065910090106867 0.5305748839430622,4.863603102811405 c0.17685829464768765,3.183449303658374 0.3095020156334534,3.4929513192918265 1.5032955045053433,4.377242792530264 c1.1937934888718904,0.840076899576516 1.2822226361957338,1.105364341548047 1.2822226361957338,3.890882482249124 c0,3.758238761263358 0.48636031028114085,4.244599071544498 4.023526203234889,4.200384497882577 l2.6086598460533903,-0.04421457366192191 l-1.326437209857656,1.4590809308434216 c-3.183449303658374,3.669809613939515 -5.3941779867544675,9.108202174355903 -6.41111318097867,15.96146109195379 c-0.7074331785907501,4.686744808163719 -0.840076899576516,12.11479318336659 -0.26528744197153126,14.94452589772959 c0.35371658929537525,1.5475100781672644 0.39793116295729747,1.2822226361957338 0.4421457366192192,-1.8127975201387958 c0.13264372098576557,-10.788355973508933 4.0677407768968115,-21.13456621039865 10.611497678861245,-28.16468342264422 c3.0065910090106867,-3.2276638773202957 3.625595040277592,-3.3603075983060613 2.1665141094341718,-0.39793116295729747 c-1.2822226361957338,2.6086598460533903 -2.5644452723914677,8.268125274779386 -2.5202306987295464,11.053643415480465 c0,1.5917246518291879 0.04421457366192191,1.5475100781672644 0.6190040312669066,-0.6632186049288287 c0.35371658929537525,-1.2822226361957338 1.1495789152099682,-3.271878450982218 1.7243683728149528,-4.465671939854107 c1.2380080625338121,-2.3875869777437804 4.5098865135160295,-6.7206151966121235 5.128890544782935,-6.7206151966121235 c0.2210728683096096,0 -0.39793116295729747,1.6359392254911098 -1.326437209857656,3.669809613939515 c-3.5371658929537486,7.560692096188638 -5.173105118444858,16.536250549558773 -4.023526203234889,21.974643109975165 c1.1937934888718904,5.5710362814021535 5.261534265768701,11.89372031505698 11.982149462380825,18.658550085331022 c2.122299535772249,2.1665141094341718 3.625595040277592,3.890882482249124 3.3603075983060613,3.890882482249124 c-0.26528744197153126,0 -1.5032955045053433,-0.574789457604985 -2.741303567039155,-1.2822226361957338 c-2.6086598460533903,-1.5032955045053433 -6.366898607316748,-5.48260713407831 -7.958623259145934,-8.400768995765153 l-1.105364341548047,-2.0338703884484057 l0.26528744197153126,2.2107286830960935 c0.26528744197153126,2.431801551405702 2.2107286830960935,6.89747349125981 4.023526203234889,9.28506046900359 c1.6801537991530306,2.2107286830960935 0.5305748839430622,1.9012266674626404 -2.0780849621103274,-0.5305748839430622 c-2.741303567039155,-2.5644452723914677 -4.156169924220655,-4.907817676473327 -5.526821707740233,-9.108202174355903 l-1.016935194224203,-3.183449303658374 l-0.04421457366192191,3.316093024644139 c-0.04421457366192191,7.1627609332313416 2.6970889933772333,13.308586672238482 10.9209996944947,24.45065923504279 c2.6086598460533903,3.5371658929537486 2.829732714362999,5.792109149711763 1.2380080625338121,10.699926826185091 c-0.2210728683096096,0.574789457604985 0.17685829464768765,0.35371658929537525 1.105364341548047,-0.6632186049288287 l1.4148663571814994,-1.5475100781672644 l-0.26528744197153126,2.0780849621103274 c-0.13264372098576557,1.1937934888718904 -0.39793116295729747,2.652874419715311 -0.5305748839430622,3.271878450982218 c-0.26528744197153126,1.105364341548047 -0.13264372098576557,1.0611497678861246 3.0065910090106867,-1.105364341548047 c4.200384497882577,-2.87394728802492 7.9144086854840126,-4.465671939854107 10.832570547170855,-4.775173955487561 l2.2991578304199365,-0.26528744197153126 l-1.6359392254911098,-1.1937934888718904 c-1.5917246518291879,-1.1495789152099682 -4.421457366192187,-3.9793116295729662 -4.023526203234889,-3.9793116295729662 c0.08842914732384374,0 1.2380080625338121,0.39793116295729747 2.5202306987295464,0.8842914732384385 c2.918161861686843,1.105364341548047 6.809044343935968,1.5475100781672644 9.638777058298965,1.105364341548047 l2.1665141094341718,-0.35371658929537525 l-1.9012266674626404,-0.574789457604985 c-2.652874419715311,-0.7958623259145938 -4.642530234501795,-2.122299535772249 -6.632186049288278,-4.377242792530264 c-5.3941779867544675,-6.1458257390071385 -8.0912669801317,-17.95111690674027 -4.863603102811405,-21.399853652370183 c1.6359392254911098,-1.768582946476875 5.084675971121014,-0.8842914732384385 7.1627609332313416,1.8570120938007184 c1.5917246518291879,2.0780849621103274 1.5032955045053433,2.6970889933772333 -0.26528744197153126,2.3433724040818595 c-4.996246823797171,-0.8842914732384385 -5.305748839430622,-0.8842914732384385 -5.128890544782935,0 c0.08842914732384374,0.48636031028114085 1.0611497678861246,1.326437209857656 2.2107286830960935,1.9012266674626404 c2.4760161250676243,1.2380080625338121 4.111955350558733,4.023526203234889 3.625595040277592,5.968967444359451 c-0.17685829464768765,0.7516477522526722 0,1.5475100781672644 0.4421457366192192,2.2549432567580148 c1.2822226361957338,1.945441241124561 0.9727206205622809,2.5644452723914677 -1.1495789152099682,2.2991578304199365 l-1.9012266674626404,-0.2210728683096096 l1.9012266674626404,1.7243683728149528 c2.0338703884484057,1.768582946476875 3.714024187601436,2.3433724040818595 6.322684033654825,2.0780849621103274 l1.5032955045053433,-0.13264372098576557 l0.13264372098576557,-2.7855181407010767 c0.13264372098576557,-2.5202306987295464 0,-3.0508055826726084 -1.326437209857656,-5.040461397459093 c-1.2822226361957338,-2.0338703884484057 -1.4590809308434216,-2.6970889933772333 -1.6801537991530306,-6.543756901964436 c-0.2210728683096096,-3.4929513192918265 -0.4421457366192192,-4.5098865135160295 -1.2822226361957338,-5.70368000238792 c-1.3706517835195782,-1.9012266674626404 -5.261534265768701,-3.714024187601436 -8.57762729041284,-3.9350970559110454 c-2.7855181407010767,-0.2210728683096096 -2.9623764353487645,-0.574789457604985 -1.016935194224203,-2.0338703884484057 c0.9285060469003591,-0.7074331785907501 1.8570120938007184,-0.9285060469003591 3.9350970559110454,-0.9285060469003591 c6.322684033654825,0.04421457366192191 11.849505741395058,5.5710362814021535 13.883376129843462,13.79494698251962 c1.016935194224203,4.156169924220655 0.9727206205622809,13.706517835195775 -0.04421457366192191,21.88621396265132 c-0.7516477522526722,6.057396591683296 -0.7516477522526722,6.764829770274044 -0.08842914732384374,9.638777058298965 c1.5917246518291879,7.1627609332313416 3.4045221719679835,10.036708221256262 10.169351942242027,16.049890239277634 l3.0950201563345305,2.741303567039155 l-1.2822226361957338,-2.2107286830960935 c-0.7074331785907501,-1.2380080625338121 -1.3706517835195782,-2.431801551405702 -1.5475100781672644,-2.652874419715311 c-0.35371658929537525,-0.5305748839430622 -0.8842914732384385,-1.9896558147864831 -0.7516477522526722,-1.9896558147864831 c0.04421457366192191,0 0.9727206205622809,1.1937934888718904 2.0780849621103274,2.6970889933772333 c2.2991578304199365,3.139234729996452 7.38383380154095,7.38383380154095 12.026364036042747,9.948279073932417 c2.87394728802492,1.5917246518291879 9.594562484637043,4.598315660839873 10.301995663227792,4.598315660839873 c0.13264372098576557,0 -0.4421457366192192,-0.7516477522526722 -1.326437209857656,-1.6801537991530306 c-2.5202306987295464,-2.5202306987295464 -2.829732714362999,-3.5813804666156708 -0.4421457366192192,-1.5475100781672644 c5.438392560416388,4.863603102811405 12.026364036042747,4.642530234501795 15.032955045053432,-0.4421457366192192 c1.4590809308434216,-2.5202306987295464 2.0780849621103274,-6.853258917597888 1.5032955045053433,-10.478853957875481 c-0.26528744197153126,-1.5917246518291879 -0.574789457604985,-4.200384497882577 -0.7074331785907501,-5.792109149711763 l-0.26528744197153126,-2.9623764353487645 l-1.768582946476875,-0.26528744197153126 c-0.9727206205622809,-0.17685829464768765 -1.8570120938007184,-0.2210728683096096 -1.945441241124561,-0.08842914732384374 c-0.08842914732384374,0.08842914732384374 0.13264372098576557,1.2380080625338121 0.48636031028114085,2.5202306987295464 c1.2822226361957338,4.3330282188683436 0.6632186049288287,6.5879714756263565 -1.8127975201387958,6.5879714756263565 c-2.2991578304199365,0 -4.465671939854107,-1.945441241124561 -6.41111318097867,-5.747894576049841 c-0.8842914732384385,-1.768582946476875 -1.016935194224203,-1.0611497678861246 -0.3095020156334534,1.4590809308434216 c0.7516477522526722,2.6970889933772333 0.17685829464768765,2.3875869777437804 -1.3706517835195782,-0.7516477522526722 c-3.271878450982218,-6.5879714756263565 -1.105364341548047,-13.529659540548089 4.156169924220655,-13.529659540548089 c0.9727206205622809,0 3.2276638773202957,0.3095020156334534 4.907817676473327,0.6632186049288287 c3.80245333492528,0.7958623259145938 5.615250855064076,0.35371658929537525 6.941688064921732,-1.7243683728149528 l0.8842914732384385,-1.3706517835195782 l-0.26528744197153126,1.5032955045053433 c-0.2210728683096096,1.2822226361957338 -0.17685829464768765,1.4148663571814994 0.39793116295729747,0.9285060469003591 c0.9727206205622809,-0.7958623259145938 1.6359392254911098,-3.846667908587203 1.326437209857656,-5.8363237233736855 c-0.26528744197153126,-1.3706517835195782 -0.4421457366192192,-1.6801537991530306 -1.016935194224203,-1.4590809308434216 c-2.0338703884484057,0.840076899576516 -3.9793116295729662,1.105364341548047 -10.523068531537403,1.5032955045053433 c-7.428048375202872,0.39793116295729747 -8.754485585060527,0.7516477522526722 -10.655712252523166,2.7855181407010767 c-1.6359392254911098,1.7243683728149528 -2.431801551405702,4.686744808163719 -2.741303567039155,10.080922794918186 l-0.26528744197153126,5.084675971121014 l-0.9727206205622809,-2.2991578304199365 c-1.5032955045053433,-3.4045221719679835 -2.122299535772249,-8.31233984844131 -1.5475100781672644,-12.203222330690433 c0.26528744197153126,-1.8127975201387958 0.6190040312669066,-3.5813804666156708 0.7958623259145938,-3.9793116295729662 c0.4421457366192192,-1.2380080625338121 -0.574789457604985,-0.840076899576516 -2.4760161250676243,0.840076899576516 c-1.016935194224203,0.9285060469003591 -2.5202306987295464,3.0950201563345305 -3.5813804666156708,5.217319692106779 c-1.768582946476875,3.4929513192918265 -1.8127975201387958,3.5371658929537486 -1.5475100781672644,1.5917246518291879 c0.17685829464768765,-1.105364341548047 0.8842914732384385,-3.758238761263358 1.6359392254911098,-5.880538297035607 c0.7074331785907501,-2.1665141094341718 1.2822226361957338,-3.9793116295729662 1.2822226361957338,-4.111955350558733 c0,-0.574789457604985 -3.9350970559110454,1.945441241124561 -5.880538297035607,3.714024187601436 c-1.9012266674626404,1.768582946476875 -2.1665141094341718,1.9012266674626404 -1.8570120938007184,0.9727206205622809 c0.6632186049288287,-2.2107286830960935 1.5917246518291879,-4.200384497882577 2.6086598460533903,-5.526821707740233 l1.0611497678861246,-1.3706517835195782 l-2.3433724040818595,-1.4148663571814994 c-8.57762729041284,-5.173105118444858 -13.264372098576557,-19.542841558569464 -9.550347910975121,-29.358476911516114 c1.016935194224203,-2.652874419715311 3.9793116295729662,-6.366898607316748 5.968967444359451,-7.38383380154095 c0.7958623259145938,-0.4421457366192192 1.1495789152099682,-1.016935194224203 1.1495789152099682,-1.768582946476875 c0,-3.183449303658374 3.0950201563345305,-11.18628713646623 5.615250855064076,-14.54659473477229 l1.0611497678861246,-1.4148663571814994 l-1.6359392254911098,-0.7074331785907501 c-3.5371658929537486,-1.4590809308434216 -7.82597953816017,-2.0780849621103274 -15.298242487024964,-2.122299535772249 c-4.023526203234889,-0.04421457366192191 -7.2954046542171085,-0.08842914732384374 -7.206975506893263,-0.17685829464768765 c0.39793116295729747,-0.4421457366192192 7.11854635956942,-1.9012266674626404 10.788355973508933,-2.3433724040818595 c3.80245333492528,-0.48636031028114085 15.032955045053432,-0.3095020156334534 19.498626984907542,0.26528744197153126 c0.840076899576516,0.13264372098576557 -0.17685829464768765,-0.39793116295729747 -2.2549432567580148,-1.105364341548047 c-10.169351942242027,-3.448736745629905 -25.069663266309693,-3.448736745629905 -38.643537380519696,0 c-1.6801537991530306,0.4421457366192192 -3.139234729996452,0.7516477522526722 -3.2276638773202957,0.6632186049288287 c-0.3095020156334534,-0.26528744197153126 8.268125274779386,-3.4045221719679835 11.982149462380825,-4.377242792530264 c11.628432873085451,-3.0065910090106867 24.22958636673318,-2.6086598460533903 36.12330668179016,1.1495789152099682 c5.615250855064076,1.768582946476875 13.397015819562323,5.659465428725998 16.801537991530306,8.400768995765153 c3.183449303658374,2.5202306987295464 3.0508055826726084,2.5644452723914677 4.465671939854107,-1.9896558147864831 c1.3706517835195782,-4.465671939854107 1.0611497678861246,-9.682991631960887 -0.7958623259145938,-13.397015819562323 c-1.8570120938007184,-3.758238761263358 -3.4045221719679835,-5.615250855064076 -6.941688064921732,-8.444983569427075 c-4.023526203234889,-3.139234729996452 -10.080922794918186,-6.057396591683296 -15.47510078167265,-7.428048375202872 c-5.040461397459093,-1.2822226361957338 -6.809044343935968,-1.4148663571814994 -3.5813804666156708,-0.26528744197153126 c9.28506046900359,3.316093024644139 16.49203597589685,9.417704189989356 19.454412411245617,16.49203597589685 c0.9285060469003591,2.2549432567580148 0.574789457604985,2.122299535772249 -0.840076899576516,-0.26528744197153126 c-2.6086598460533903,-4.465671939854107 -9.28506046900359,-8.887129306046296 -16.049890239277634,-10.611497678861245 c-9.550347910975121,-2.4760161250676243 -22.549432567580148,-1.6359392254911098 -34.001007146017905,2.1665141094341718 c-4.598315660839873,1.5032955045053433 -10.832570547170855,4.642530234501795 -13.883376129843462,6.89747349125981 l-2.431801551405702,1.8127975201387958 l2.2107286830960935,-2.2549432567580148 c4.200384497882577,-4.377242792530264 11.805291167733136,-8.53341271675092 19.67548527955523,-10.788355973508933 c4.598315660839873,-1.326437209857656 11.318930857451996,-2.5202306987295464 14.325521866462683,-2.5202306987295464 c3.846667908587203,0 3.846667908587203,-0.7516477522526722 0,-1.105364341548047 c-6.322684033654825,-0.6190040312669066 -16.49203597589685,0.6190040312669066 -22.32835969927054,2.652874419715311 c-2.829732714362999,1.016935194224203 -1.945441241124561,0.3095020156334534 1.945441241124561,-1.5475100781672644 c6.985902638583654,-3.316093024644139 16.536250549558773,-5.261534265768701 23.743226056452038,-4.730959381825639 l3.316093024644139,0.2210728683096096 l-2.431801551405702,-0.6632186049288287 c-1.326437209857656,-0.35371658929537525 -5.305748839430622,-0.7516477522526722 -8.842914732384372,-0.8842914732384385 c-5.305748839430622,-0.17685829464768765 -7.1627609332313416,-0.04421457366192191 -10.611497678861245,0.6632186049288287 c-9.417704189989356,1.945441241124561 -17.55318574378298,6.499542328302513 -24.937019545323928,14.016019850829231 c-2.741303567039155,2.7855181407010767 -3.0065910090106867,2.9623764353487645 -2.741303567039155,1.768582946476875 c0.17685829464768765,-0.7516477522526722 1.016935194224203,-2.431801551405702 1.8570120938007184,-3.846667908587203 c1.7243683728149528,-2.829732714362999 1.8570120938007184,-3.9793116295729662 0.6190040312669066,-5.217319692106779 c-1.326437209857656,-1.326437209857656 -4.465671939854107,-1.1937934888718904 -7.737550390836326,0.39793116295729747 c-2.9623764353487645,1.4148663571814994 -8.444983569427075,5.349963413092546 -12.203222330690433,8.798700158722449 c-1.3706517835195782,1.2822226361957338 -2.652874419715311,2.2991578304199365 -2.7855181407010767,2.2991578304199365 c-0.17685829464768765,0 0.13264372098576557,-0.840076899576516 0.6632186049288287,-1.9012266674626404 c1.326437209857656,-2.5644452723914677 6.6764006229502,-7.737550390836326 9.904064500270495,-9.5061333373132 l2.652874419715311,-1.4590809308434216 l-1.768582946476875,0.26528744197153126 c-3.183449303658374,0.48636031028114085 -7.206975506893263,2.0338703884484057 -9.948279073932417,3.80245333492528 c-2.6970889933772333,1.7243683728149528 -2.741303567039155,1.7243683728149528 -1.8127975201387958,0.48636031028114085 c1.9012266674626404,-2.652874419715311 6.101611165345218,-5.792109149711763 9.5061333373132,-7.0301172122455755 c0.9727206205622809,-0.35371658929537525 3.139234729996452,-0.8842914732384385 4.8193885291494825,-1.1937934888718904 c2.87394728802492,-0.48636031028114085 2.9623764353487645,-0.5305748839430622 2.2991578304199365,-1.4148663571814994 c-1.2380080625338121,-1.8127975201387958 -5.48260713407831,-3.0950201563345305 -7.82597953816017,-2.3875869777437804 z" id="svg_4" class="selected" fill="#ffffff" fill-opacity="1"/>





















<path d="M20.000000298023224,872.4999989941716 c-2.2000000327825546,2.600000038743019 0.30000000447034836,6.500000096857548 4.000000059604645,6.500000096857548 c3.500000052154064,0 5.800000086426735,-3.6000000536441803 4.500000067055225,-6.70000009983778 c-0.7000000104308128,-1.600000023841858 -0.9000000134110451,-1.5000000223517418 -1.3000000193715096,0.7000000104308128 c-0.6000000089406967,4.000000059604645 -2.2000000327825546,4.800000071525574 -2.2000000327825546,1.2000000178813934 c0,-2.500000037252903 -0.4000000059604645,-3.200000047683716 -1.9000000283122063,-3.200000047683716 c-1.0000000149011612,0 -2.400000035762787,0.7000000104308128 -3.1000000461935997,1.5000000223517418 zm3.0000000447034836,2.600000038743019 c0,1.1000000163912773 -0.4000000059604645,1.700000025331974 -1.0000000149011612,1.4000000208616257 c-0.5000000074505806,-0.30000000447034836 -1.0000000149011612,-1.3000000193715096 -1.0000000149011612,-2.1000000312924385 c0,-0.800000011920929 0.5000000074505806,-1.4000000208616257 1.0000000149011612,-1.4000000208616257 c0.6000000089406967,0 1.0000000149011612,0.9000000134110451 1.0000000149011612,2.1000000312924385 z" id="svg_26" class=""/>
<path d="M19.700000293552876,883.8999991640449 c-0.800000011920929,2.2000000327825546 -1.8000000268220901,3.1000000461935997 -3.400000050663948,3.1000000461935997 c-1.4000000208616257,0 -2.3000000342726707,0.6000000089406967 -2.3000000342726707,1.5000000223517418 c0,2.3000000342726707 13.800000205636024,2.2000000327825546 14.70000021904707,-0.20000000298023224 c1.0000000149011612,-2.600000038743019 -1.9000000283122063,-6.800000101327896 -5.000000074505806,-7.1000001057982445 c-2.400000035762787,-0.30000000447034836 -3.0000000447034836,0.20000000298023224 -4.000000059604645,2.7000000402331352 zm5.700000084936619,-0.30000000447034836 c2.8000000417232513,1.1000000163912773 1.8000000268220901,3.400000050663948 -1.4000000208616257,3.400000050663948 c-1.8000000268220901,0 -3.0000000447034836,-0.5000000074505806 -3.0000000447034836,-1.3000000193715096 c0,-2.500000037252903 1.5000000223517418,-3.200000047683716 4.400000065565109,-2.1000000312924385 z" id="svg_27" class=""/>
<path d="M20.60000030696392,893.5999993085861 c-0.9000000134110451,0.800000011920929 -1.600000023841858,2.2000000327825546 -1.600000023841858,2.9000000432133675 c0,2.1000000312924385 2.9000000432133675,4.500000067055225 5.500000081956387,4.500000067055225 c2.2000000327825546,0 4.500000067055225,-2.500000037252903 4.500000067055225,-4.90000007301569 c0,-1.600000023841858 -3.0000000447034836,-4.100000061094761 -5.000000074505806,-4.100000061094761 c-1.0000000149011612,0 -2.600000038743019,0.7000000104308128 -3.400000050663948,1.600000023841858 zm5.900000087916851,2.9000000432133675 c0,2.2000000327825546 -3.1000000461935997,3.300000049173832 -4.700000070035458,1.700000025331974 c-1.700000025331974,-1.700000025331974 -0.10000000149011612,-4.400000065565109 2.400000035762787,-4.000000059604645 c1.5000000223517418,0.20000000298023224 2.3000000342726707,1.0000000149011612 2.3000000342726707,2.3000000342726707 z" id="svg_28" class=""/>
<path d="M14.000000208616257,904.9999994784594 c0,0.5000000074505806 1.1000000163912773,1.0000000149011612 2.500000037252903,1.0000000149011612 c1.5000000223517418,0 2.500000037252903,0.6000000089406967 2.500000037252903,1.4000000208616257 c0,4.500000067055225 7.300000108778477,6.200000092387199 9.200000137090683,2.2000000327825546 c2.0000000298023224,-4.500000067055225 0.6000000089406967,-5.600000083446503 -7.200000107288361,-5.600000083446503 c-4.000000059604645,0 -7.000000104308128,0.4000000059604645 -7.000000104308128,1.0000000149011612 zm12.800000190734863,2.7000000402331352 c-0.20000000298023224,1.2000000178813934 -1.2000000178813934,1.8000000268220901 -2.8000000417232513,1.8000000268220901 c-1.600000023841858,0 -2.600000038743019,-0.6000000089406967 -2.8000000417232513,-1.8000000268220901 c-0.30000000447034836,-1.3000000193715096 0.30000000447034836,-1.700000025331974 2.8000000417232513,-1.700000025331974 c2.500000037252903,0 3.1000000461935997,0.4000000059604645 2.8000000417232513,1.700000025331974 z" id="svg_29" class=""/>
<path d="M22.000000327825546,915.4999996349216 c-3.6000000536441803,1.2000000178813934 -6.500000096857548,2.8000000417232513 -6.500000096857548,3.500000052154064 c0,0.7000000104308128 3.0000000447034836,2.3000000342726707 6.800000101327896,3.6000000536441803 c3.8000000566244125,1.3000000193715096 6.70000009983778,1.8000000268220901 6.70000009983778,1.2000000178813934 c0,-0.5000000074505806 -0.9000000134110451,-1.2000000178813934 -2.0000000298023224,-1.5000000223517418 c-2.400000035762787,-0.6000000089406967 -2.9000000432133675,-6.3000000938773155 -0.6000000089406967,-6.3000000938773155 c1.4000000208616257,0 3.200000047683716,-1.8000000268220901 2.500000037252903,-2.400000035762787 c-0.20000000298023224,-0.20000000298023224 -3.300000049173832,0.7000000104308128 -6.900000102818012,1.9000000283122063 zm0.800000011920929,5.000000074505806 c-0.7000000104308128,0.7000000104308128 -4.800000071525574,-0.7000000104308128 -4.800000071525574,-1.5000000223517418 c0,-1.5000000223517418 4.500000067055225,-1.600000023841858 4.800000071525574,-0.20000000298023224 c0.20000000298023224,0.800000011920929 0.20000000298023224,1.5000000223517418 0,1.700000025331974 z" id="svg_30" class=""/>
</g></svg>